<svg x="0" y="0" width="60" height="52.9567519858782" filtersec="colorsb3206095575" class="image-svg-svg primary"><svg
    xmlns="http://www.w3.org/2000/svg" viewBox="0 0 113.30000305175781 100.00000762939453">
    <path fill="#d40682"
      d="M70.81 8.42L57.89 22.56l7.65 8.37 12.92-14.14 7.7-8.42L78.5.01l-7.69 8.41zM92.08 31.66l7.7-8.43-7.66-8.36-7.7 8.42L71.5 37.44l7.65 8.37 12.93-14.15zM97.95 38.07L85.01 52.23l7.65 8.36 12.94-14.16 7.7-8.42-7.66-8.36-7.69 8.42z">
    </path>
    <path fill="#090d33"
      d="M48.96 91.58L0 38.01l7.65-8.37 48.96 53.58 7.7 8.41-7.66 8.37-7.69-8.42zM70.22 68.35l7.7 8.42-7.66 8.36-7.69-8.42-48.96-53.57 7.66-8.36 48.95 53.57zM76.09 61.93L27.13 8.36 34.79 0l48.96 53.57 7.7 8.42-7.66 8.37-7.7-8.43z">
    </path>
  </svg>
</svg>